<svg width="100" height="100" viewBox="0 0 100 100" fill="none" xmlns="http://www.w3.org/2000/svg">
<path d="M20.7227 87.7102C20.7227 86.7768 20.9244 85.9466 21.3279 85.2196C21.7313 84.4837 22.2917 83.9138 23.009 83.5099C23.7352 83.097 24.5556 82.8906 25.4702 82.8906C26.5909 82.8906 27.5503 83.1868 28.3483 83.7791C29.1462 84.3715 29.6797 85.1792 29.9487 86.2024H27.4203C27.232 85.8075 26.963 85.5068 26.6133 85.3004C26.2726 85.094 25.8826 84.9908 25.4433 84.9908C24.7349 84.9908 24.1611 85.2376 23.7218 85.7312C23.2825 86.2248 23.0628 86.8845 23.0628 87.7102C23.0628 88.5359 23.2825 89.1955 23.7218 89.6892C24.1611 90.1828 24.7349 90.4296 25.4433 90.4296C25.8826 90.4296 26.2726 90.3264 26.6133 90.12C26.963 89.9135 27.232 89.6129 27.4203 89.218H29.9487C29.6797 90.2411 29.1462 91.0489 28.3483 91.6412C27.5503 92.2246 26.5909 92.5163 25.4702 92.5163C24.5556 92.5163 23.7352 92.3144 23.009 91.9105C22.2917 91.4976 21.7313 90.9277 21.3279 90.2007C20.9244 89.4738 20.7227 88.6436 20.7227 87.7102Z" fill="url(#paint0_linear_2592_2527)"/>
<path d="M46.2586 82.9983V92.449H43.9588V88.5583H40.3813V92.449H38.0816V82.9983H40.3813V86.7005H43.9588V82.9983H46.2586Z" fill="url(#paint1_linear_2592_2527)"/>
<path d="M60.5205 90.7796H56.9969L56.432 92.449H54.0246L57.4407 82.9983H60.1036L63.5197 92.449H61.0854L60.5205 90.7796ZM59.9288 89.0026L58.7587 85.5427L57.6021 89.0026H59.9288Z" fill="url(#paint2_linear_2592_2527)"/>
<path d="M78.0756 82.9983V84.8427H75.5741V92.449H73.2743V84.8427H70.7728V82.9983H78.0756Z" fill="url(#paint3_linear_2592_2527)"/>
<g clip-path="url(#clip0_2592_2527)">
<path d="M41.155 50.7608C41.155 54.4512 42.4373 57.4612 45.1067 60.0262C47.8022 62.5127 51.0734 63.7952 54.8681 63.7952C58.6104 63.7952 61.8817 62.5388 64.5772 60.0262C67.2465 57.4874 68.555 54.4512 68.555 50.7608C68.555 47.0442 67.2465 44.0342 64.5772 41.5477C61.8817 39.0089 58.6104 37.7264 54.8681 37.7264C51.0211 37.7264 47.8284 38.9827 45.1067 41.5477C42.4635 44.008 41.155 47.1227 41.155 50.7608ZM49.5032 45.4214C50.9426 43.9295 52.7222 43.1967 54.8419 43.1967C56.9617 43.1967 58.7674 43.9557 60.1806 45.4476C61.62 46.8871 62.3527 48.6669 62.3527 50.787C62.3527 52.8547 61.62 54.6606 60.1806 56.1787C58.7151 57.6444 56.9355 58.3773 54.8419 58.3773C52.7483 58.3773 50.9688 57.6444 49.5032 56.2049C48.0639 54.7653 47.3311 52.907 47.3311 50.8131C47.3311 48.6669 48.0639 46.8609 49.5032 45.4214ZM80.3315 44.6624C80.3054 44.5839 80.3054 44.5315 80.2792 44.4792L80.253 44.3221C80.0175 43.2752 79.7296 42.2282 79.3632 41.2337L79.2062 40.8149C78.709 39.5324 78.0547 38.2761 77.2696 37.0721L77.165 36.915C77.0864 36.7842 77.0079 36.6795 76.9556 36.5748C72.8992 30.6858 66.6184 27.3879 63.2425 25.9484L61.1489 25.1632C60.5993 24.9014 59.8927 24.535 59.16 24.09C57.5113 22.9384 57.1711 21.6559 57.1711 20.0855C57.1711 17.3896 59.5525 15.5052 62.9546 15.5052C66.1997 15.5052 68.7382 16.6044 70.5439 18.7768L75.5686 14.5106C72.5329 9.95638 68.3195 7.75781 62.7191 7.75781C59.0291 7.75781 55.8887 8.90944 53.3502 11.1865C50.8641 13.3589 49.5818 16.395 49.5818 20.1902C49.5818 26.3933 52.4605 30.2408 59.2385 33.0152C59.3432 33.0675 59.4478 33.0937 59.5525 33.1461L59.6572 33.1722C59.9451 33.3031 60.2329 33.4078 60.5732 33.5387C62.3789 34.3239 66.9063 36.6009 69.8897 40.527C71.4599 42.6208 72.4805 44.9241 72.9516 47.3844C73.1609 48.5622 73.2394 49.7662 73.2656 50.9702C72.6637 60.7067 64.5772 68.3493 54.8419 68.3493C44.6618 68.3493 36.3921 60.0785 36.3921 49.8971V32.8058H47.2526V26.1054H18.0469V32.8058H29.2476V50.1326C29.2476 50.499 29.3 53.8231 29.6925 55.7337C30.2683 58.3511 31.1319 60.7067 32.2049 62.722C32.7283 63.6381 33.304 64.5542 33.9321 65.3656L34.0106 65.4703C38.9829 72.1183 46.5722 75.9135 54.8419 75.9135C69.1831 75.9135 80.8549 64.2401 80.8549 49.8709C80.8811 48.1434 80.6979 46.3898 80.3315 44.6624Z" fill="url(#paint4_linear_2592_2527)"/>
</g>
<defs>
<linearGradient id="paint0_linear_2592_2527" x1="49.3991" y1="82.8906" x2="49.3991" y2="92.5163" gradientUnits="userSpaceOnUse">
<stop stop-color="#0585CD"/>
<stop offset="1" stop-color="#006096"/>
</linearGradient>
<linearGradient id="paint1_linear_2592_2527" x1="49.3991" y1="82.8906" x2="49.3991" y2="92.5163" gradientUnits="userSpaceOnUse">
<stop stop-color="#0585CD"/>
<stop offset="1" stop-color="#006096"/>
</linearGradient>
<linearGradient id="paint2_linear_2592_2527" x1="49.3991" y1="82.8906" x2="49.3991" y2="92.5163" gradientUnits="userSpaceOnUse">
<stop stop-color="#0585CD"/>
<stop offset="1" stop-color="#006096"/>
</linearGradient>
<linearGradient id="paint3_linear_2592_2527" x1="49.3991" y1="82.8906" x2="49.3991" y2="92.5163" gradientUnits="userSpaceOnUse">
<stop stop-color="#0585CD"/>
<stop offset="1" stop-color="#006096"/>
</linearGradient>
<linearGradient id="paint4_linear_2592_2527" x1="49.4521" y1="7.75781" x2="49.4521" y2="75.9135" gradientUnits="userSpaceOnUse">
<stop stop-color="#0585CD"/>
<stop offset="1" stop-color="#006096"/>
</linearGradient>
<clipPath id="clip0_2592_2527">
<rect width="62.8342" height="68.1818" fill="white" transform="translate(18.0469 7.75781)"/>
</clipPath>
</defs>
</svg>
