<svg width="1846" height="1846" viewBox="0 0 1846 1846" fill="none" xmlns="http://www.w3.org/2000/svg">
<path d="M517 1444.99C517 1432.22 519.79 1420.87 525.37 1410.94C530.95 1400.87 538.7 1393.08 548.62 1387.56C558.665 1381.92 570.011 1379.09 582.659 1379.09C598.159 1379.09 611.427 1383.14 622.464 1391.24C633.5 1399.34 640.878 1410.38 644.598 1424.37H609.629C607.025 1418.97 603.305 1414.86 598.469 1412.04C593.757 1409.22 588.363 1407.81 582.287 1407.81C572.491 1407.81 564.555 1411.18 558.479 1417.93C552.403 1424.68 549.364 1433.7 549.364 1444.99C549.364 1456.27 552.403 1465.29 558.479 1472.04C564.555 1478.79 572.491 1482.16 582.287 1482.16C588.363 1482.16 593.757 1480.75 598.469 1477.93C603.305 1475.11 607.025 1471 609.629 1465.6H644.598C640.878 1479.59 633.5 1490.63 622.464 1498.73C611.427 1506.71 598.159 1510.69 582.659 1510.69C570.011 1510.69 558.665 1507.93 548.62 1502.41C538.7 1496.77 530.95 1488.97 525.37 1479.04C519.79 1469.1 517 1457.75 517 1444.99Z" fill="white"/>
<path d="M870.167 1380.57V1509.77H838.361V1456.58H788.884V1509.77H757.077V1380.57H788.884V1431.18H838.361V1380.57H870.167Z" fill="white"/>
<path d="M1067.41 1486.95H1018.68L1010.87 1509.77H977.573L1024.82 1380.57H1061.65L1108.89 1509.77H1075.22L1067.41 1486.95ZM1059.23 1462.65L1043.05 1415.35L1027.05 1462.65H1059.23Z" fill="white"/>
<path d="M1310.2 1380.57V1405.78H1275.61V1509.77H1243.8V1405.78H1209.2V1380.57H1310.2Z" fill="white"/>
<g clip-path="url(#clip0_2685_1706)">
<path d="M798.556 933.567C798.556 984.599 816.289 1026.22 853.203 1061.69C890.478 1096.07 935.716 1113.81 988.191 1113.81C1039.94 1113.81 1085.18 1096.44 1122.46 1061.69C1159.37 1026.58 1177.46 984.599 1177.46 933.567C1177.46 882.172 1159.37 840.55 1122.46 806.167C1085.18 771.06 1039.94 753.325 988.191 753.325C934.992 753.325 890.84 770.698 853.203 806.167C816.651 840.188 798.556 883.258 798.556 933.567ZM914.002 859.733C933.906 839.103 958.515 828.969 987.829 828.969C1017.14 828.969 1042.11 839.465 1061.66 860.095C1081.56 880.001 1091.69 904.612 1091.69 933.929C1091.69 962.521 1081.56 987.494 1061.66 1008.49C1041.39 1028.75 1016.78 1038.89 987.829 1038.89C958.877 1038.89 934.268 1028.75 914.002 1008.85C894.097 988.942 883.964 963.245 883.964 934.291C883.964 904.612 894.097 879.639 914.002 859.733ZM1340.32 849.237C1339.96 848.151 1339.96 847.427 1339.59 846.703L1339.23 844.532C1335.98 830.054 1331.99 815.577 1326.93 801.824L1324.76 796.033C1317.88 778.298 1308.83 760.926 1297.98 744.277L1296.53 742.105C1295.44 740.296 1294.36 738.848 1293.63 737.4C1237.54 655.966 1150.68 610.362 1104 590.456L1075.05 579.598C1067.45 575.979 1057.68 570.912 1047.54 564.759C1024.74 548.834 1020.04 531.099 1020.04 509.384C1020.04 472.105 1052.97 446.046 1100.02 446.046C1144.89 446.046 1180 461.247 1204.97 491.287L1274.45 432.292C1232.47 369.316 1174.21 338.914 1096.76 338.914C1045.73 338.914 1002.3 354.839 967.201 386.327C932.82 416.367 915.087 458.351 915.087 510.831C915.087 596.609 954.896 649.813 1048.63 688.177C1050.08 688.901 1051.52 689.263 1052.97 689.987L1054.42 690.349C1058.4 692.159 1062.38 693.606 1067.08 695.416C1092.06 706.274 1154.66 737.762 1195.92 792.052C1217.63 821.006 1231.75 852.856 1238.26 886.878C1241.16 903.164 1242.24 919.813 1242.61 936.462C1234.28 1071.1 1122.46 1176.78 987.829 1176.78C847.051 1176.78 732.691 1062.41 732.691 921.623V685.282H882.879V592.628H479V685.282H633.892V924.88C633.892 929.947 634.616 975.913 640.045 1002.33C648.007 1038.53 659.949 1071.1 674.787 1098.97C682.025 1111.64 689.987 1124.3 698.672 1135.52L699.758 1136.97C768.519 1228.9 873.469 1281.38 987.829 1281.38C1186.15 1281.38 1347.56 1119.96 1347.56 921.261C1347.92 897.374 1345.38 873.124 1340.32 849.237Z" fill="white"/>
</g>
<defs>
<clipPath id="clip0_2685_1706">
<rect width="868.918" height="942.83" fill="white" transform="translate(479 338.914)"/>
</clipPath>
</defs>
</svg>
